<svg width="248" height="117" fill="none" xmlns="http://www.w3.org/2000/svg">
  <g>
    <path d="M233.2 61.19c-1.459 0-2.858-.5795-3.889-1.6109-1.032-1.0315-1.611-2.4304-1.611-3.8891v-39c-.003-2.2535-.899-4.414-2.493-6.0075-1.593-1.59347-3.753-2.48985-6.007-2.4925h-55c-2.254 0-4.416.89554-6.01 2.4896-1.594 1.5941-2.49 3.7561-2.49 6.0104 0 1.1162-.22 2.2215-.647 3.2528-.427 1.0313-1.053 1.9683-1.843 2.7576-.789.7893-1.726 1.4154-2.757 1.8426-1.031.4271-2.137.647-3.253.647h-98c-2.7902.0106-5.4623 1.1271-7.4306 3.1047-1.9683 1.9777-3.0721 4.6551-3.0694 7.4453v1c0 1.1105-.2189 2.2101-.6442 3.236-.4252 1.0258-1.0486 1.9578-1.8343 2.7426-.7857.7848-1.7184 1.407-2.7448 1.8311-1.0263.424-2.1262.6416-3.2367.6403h-9c-2.8295 0-5.6313.5575-8.2453 1.6406s-4.98901 2.6706-6.98932 4.6719c-2.0003 2.0012-3.58672 4.3769-4.66862 6.9914C.254865 61.1084-.301314 63.9105-.300001 66.74v50.45H247.7v-50.5c-.003-1.4579-.583-2.8553-1.614-3.8862-1.031-1.0308-2.428-1.6112-3.886-1.6138h-9z" fill="#1D48AD"/>
    <path d="M61.7 31.19c0 .5304-.2107 1.0391-.5858 1.4142s-.8838.5858-1.4142.5858c-.5304 0-1.0391-.2107-1.4142-.5858S57.7 31.7204 57.7 31.19" fill="#DC4E03"/>
    <path d="M46.5 89.29l-13.8 6.9 19.71-55h11.17c.8498-.0013 1.6874.2018 2.4422.5921.7548.3903 1.4047.9564 1.8949 1.6505.4902.6941.8063 1.4959.9217 2.3378.1153.8419.0266 1.6992-.2588 2.4996l-9.65 27c-2.1838 6.0994-6.6362 11.1213-12.43 14.02z" fill="#F3B015"/>
    <path d="M29.87 105.79L39 81.41l14.55-38.8 3.31-8.82-2.16 1.65h14c2.89 0 2.9-4.5 0-4.5h-14c-.4891.0123-.962.1784-1.3515.4745-.3895.2962-.6759.7075-.8185 1.1755L43.38 57 28.83 95.78l-3.3 8.81c-.1568.575-.0797 1.19.2144 1.708.2941.519.7814.901 1.3556 1.062.5751.146 1.1844.064 1.7006-.228.5162-.293.8994-.774 1.0694-1.342z" fill="#F7E080"/>
    <path d="M36.67 112.19c0-2.52-1.0009-4.936-2.7825-6.718-1.7816-1.781-4.1979-2.782-6.7175-2.782-2.5196 0-4.9359 1.001-6.7175 2.782-1.7816 1.782-2.7825 4.198-2.7825 6.718h19z" fill="#E57003"/>
    <path d="M16.7 108.19h23v9h-32c0-2.387.94821-4.676 2.636-6.364 1.6879-1.688 3.977-2.636 6.364-2.636z" fill="#EF9504"/>
    <path d="M39.7 117.19c3.3137 0 6-2.686 6-6s-2.6863-6-6-6-6 2.686-6 6 2.6863 6 6 6z" fill="#DC4E03"/>
    <path d="M39.7 114.19c1.6569 0 3-1.343 3-3s-1.3431-3-3-3-3 1.343-3 3 1.3431 3 3 3z" fill="#F3B015"/>
    <path d="M206.2 99.19h-7v18h7v-18zM232.2 99.19h-7v18h7v-18z" fill="#C7CCD1"/>
    <path d="M234.7 92.19h-38c-2.485 0-4.5 2.0147-4.5 4.5s2.015 4.5 4.5 4.5h38c2.485 0 4.5-2.0147 4.5-4.5s-2.015-4.5-4.5-4.5z" fill="white"/>
    <path d="M215.43 67.73c-.507.4011-.929.8986-1.243 1.4637-.314.5651-.513 1.1867-.585 1.829-.073.6422-.017 1.2925.162 1.9134.18.6208.481 1.1999.886 1.7039l7.68-6.13c-.402-.5043-.899-.9245-1.463-1.2366-.565-.3121-1.185-.5101-1.825-.5825-.641-.0724-1.29-.0179-1.91.1604-.619.1782-1.198.4768-1.702.8787zM234.81 69.93c.404.5032.705 1.0815.885 1.7015.18.62.235 1.2695.162 1.911-.072.6415-.271 1.2622-.585 1.8265-.313.5642-.735 1.0608-1.242 1.461l-6.12-7.69c.504-.4026 1.083-.7015 1.703-.8798.621-.1782 1.27-.2322 1.911-.1587.641.0734 1.262.2727 1.825.5865.564.3138 1.061.7359 1.461 1.242z" fill="#F5CE37"/>
    <path d="M216.47 82l-3.05 2.43-.43.34c-.281.281-.44.6623-.44 1.06.005.3968.162.7766.44 1.06.138.1407.303.2521.485.3277s.378.1138.575.1123h.4c.252-.0656.481-.2007.66-.39l3.06-2.43.43-.34c.145-.1557.256-.3405.325-.5422.069-.2016.095-.4156.075-.6278-.008-.3708-.15-.7262-.4-1-.14-.1405-.307-.2518-.491-.3273-.184-.0755-.38-.1138-.579-.1127h-.39c-.254.0677-.486.2024-.67.39V82zM228.25 85.4l2.43 3.06.34.42c.283.2815.666.4395 1.065.4395.399 0 .782-.158 1.065-.4395.278-.2834.435-.6632.44-1.06l-.06-.4c-.071-.2479-.201-.4745-.38-.66l-2.44-3.05-.34-.43c-.21-.2095-.477-.3522-.768-.4099-.291-.0578-.592-.0281-.866.0853-.274.1135-.508.3055-.673.5519-.165.2465-.253.5362-.253.8327l.05.4c.074.2485.208.4751.39.66z" fill="#DC4E03"/>
    <path d="M224.06 87.01c4.971 0 9-4.0294 9-9s-4.029-9-9-9-9 4.0294-9 9 4.029 9 9 9z" fill="white" stroke="#E57003" stroke-width="2" stroke-miterlimit="10"/>
    <path d="M227.72 79.74L224 77.31l.37.64.56-5c0-.1989-.079-.3897-.22-.5303-.14-.1407-.331-.2197-.53-.2197-.197.0074-.383.0888-.522.2279s-.221.3256-.228.5221l-.56 5c-.002.1314.032.2609.097.3752.065.1142.159.2091.273.2748L227 81c.81.53 1.57-.77.76-1.3l-.04.04z" fill="#E57003"/>
    <path d="M131.18 87.92h49.09c1.437 0 2.816.571 3.833 1.5875 1.016 1.0164 1.587 2.395 1.587 3.8325v23.85h-59.93V93.34c0-1.4375.571-2.8161 1.587-3.8325 1.017-1.0165 2.396-1.5875 3.833-1.5875z" fill="#EBF0F7"/>
    <path d="M59.87 107.42h108.21l-6.71-46c-.288-1.9596-1.27-3.7506-2.768-5.0465-1.498-1.296-3.411-2.0105-5.392-2.0135H67.5c-2.0245.0027-3.9652.8088-5.3958 2.2412C60.6735 58.0337 59.87 59.9755 59.87 62v45.42z" fill="#EBF0F7"/>
    <path d="M67.5 54.4c2.0184 0 3.9546.7997 5.3846 2.2242C74.3147 58.0486 75.1221 59.9816 75.13 62v45.39H59.87V62c.0079-2.0184.8153-3.9514 2.2453-5.3758C63.5454 55.1997 65.4816 54.4 67.5 54.4z" fill="#DAE1EA"/>
    <path d="M180.27 87.92c1.437 0 2.816.571 3.833 1.5875 1.016 1.0164 1.587 2.395 1.587 3.8325v23.85h-10.84V93.34c0-1.4375.571-2.8161 1.587-3.8325 1.017-1.0165 2.396-1.5875 3.833-1.5875z" fill="white"/>
    <path d="M70 105.93h94.52c1.894 0 3.71.752 5.049 2.091 1.339 1.339 2.091 3.155 2.091 5.049v4.12H70v-11.26z" fill="#DAE1EA"/>
    <path d="M112.7 43.65h24.43c1.107-.0026 2.204.2128 3.228.634 1.023.4213 1.954 1.04 2.739 1.8209.784.781 1.408 1.7088 1.834 2.7306.426 1.0218.646 2.1175.649 3.2245v.49h5.17c-.008-3.1093-1.25-6.0882-3.453-8.282-2.204-2.1939-5.188-3.4233-8.297-3.418h-34.48c-.369-.0013-.735.0701-1.076.2101-.342.14-.652.3459-.914.6059s-.47.569-.612.9094c-.143.3404-.217.7056-.218 1.0746h11z" fill="#AEC7FF"/>
    <path d="M143.7 48.19c2.652 0 5.196 1.0536 7.071 2.9289 1.875 1.8754 2.929 4.4189 2.929 7.0711 0 2.6522-1.054 5.1957-2.929 7.0711-1.875 1.8753-4.419 2.9289-7.071 2.9289v-20zM129.7 43.65h-24.43c-1.108-.0039-2.206.2105-3.231.6312-1.025.4206-1.957 1.0391-2.7422 1.8202-.7858.7811-1.4098 1.7094-1.8365 2.7318-.4267 1.0224-.6477 2.1189-.6503 3.2268v.49h-5.17c.0079-3.1093 1.25-6.0881 3.4533-8.282s5.1877-3.4233 8.2967-3.418h34.48c.745 0 1.461.294 1.991.8183.529.5242.831 1.2364.839 1.9817h-11z" fill="#AEC7FF"/>
    <path d="M96.7 48.19c-2.6522 0-5.1957 1.0536-7.0711 2.9289C87.7536 52.9943 86.7 55.5378 86.7 58.19c0 2.6522 1.0536 5.1957 2.9289 7.0711C91.5043 67.1364 94.0478 68.19 96.7 68.19v-20z" fill="#AEC7FF"/>
    <path d="M140.39 73.71L105 75.09l-2.39 16.8c-.443 2.7505.057 5.5701 1.42 8 1.079 1.935 2.656 3.546 4.567 4.666 1.912 1.12 4.088 1.708 6.303 1.704l19.26-.05c2.316-.004 4.574-.729 6.459-2.075 1.885-1.346 3.305-3.246 4.061-5.435.777-2.2644.805-4.7185.08-7l-4.37-17.99zM99.26 96.7l4.37 6.44c.078.116.123.251.13.391.007.139-.024.278-.089.401-.066.124-.164.227-.284.299-.12.071-.257.109-.397.109h-7.78c-.7947.001-1.5777-.191-2.2812-.561-.7036-.369-1.3065-.905-1.7566-1.559-.4501-.655-.7338-1.41-.8265-2.199-.0927-.7896.0083-1.5896.2943-2.331.3196-.8359.8625-1.568 1.5695-2.1166.707-.5487 1.551-.8928 2.44-.9949.889-.1021 1.7891.0417 2.602.4158.813.3741 1.5077.9641 2.0085 1.7057z" fill="#6A94FF"/>
    <path d="M147.28 86.99h-3.97c-2.309 0-4.18 1.8714-4.18 4.18 0 2.3085 1.871 4.18 4.18 4.18h3.97c2.309 0 4.18-1.8715 4.18-4.18 0-2.3086-1.871-4.18-4.18-4.18z" fill="#6A94FF"/>
    <path d="M130.66 104.84c.817-.074 1.618-.266 2.38-.57.451-.125.908-.225 1.37-.3-1.79.35-.61.08-.11.06h1c.34 0 .75 0 1.13.08 1 .09-1-.18-.29 0l.72.13c1.085.216 2.155.507 3.2.87.61.2 1.21.44 1.81.67.42.17.34.14-.24-.11l.53.24 1.09.5c1.69.81 3.32 1.72 4.93 2.68.971.506 2.099.62 3.151.316 1.052-.303 1.947-1 2.498-1.946.552-.945.719-2.067.466-3.132-.253-1.065-.907-1.992-1.825-2.588-4.15-2.48-8.73-4.84-13.54-5.74-2.698-.6124-5.503-.5679-8.18.13-.26.08-.52.17-.77.27-.83.29.24 0 .68 0-.576-.0279-1.152.0614-1.693.2626-.54.2013-1.034.5102-1.452.908-.417.3979-.75.8764-.977 1.4066-.227.5302-.344 1.1008-.344 1.6778s.117 1.148.344 1.678c.227.53.56 1.009.977 1.406.418.398.912.707 1.452.908.541.202 1.117.291 1.693.263v-.07z" fill="url(#paint0_linear)"/>
    <path opacity=".5" d="M104.44 78.75l35.95-3.04-.79-4.71-34.35 2.43-.81 5.32z" fill="#316EE5"/>
    <path d="M120.45 104.59c.6 0 1.2.06 1.8.12.23 0 1.23.15.33 0-.9-.15.23 0 .48.08.76.12 1.51.27 2.26.44 1.925.434 3.819.995 5.67 1.68.494.16.979.351 1.45.57-.95-.5 0 0 .18.08l.76.35c1.23.57 2.43 1.21 3.61 1.88.482.282 1.015.466 1.568.541.553.076 1.115.042 1.655-.099.54-.142 1.047-.388 1.492-.726.444-.337.818-.759 1.1-1.241.282-.482.466-1.015.541-1.568.076-.553.042-1.115-.099-1.655-.142-.54-.388-1.047-.726-1.492-.337-.444-.759-.818-1.241-1.1-4.267-2.4811-8.881-4.3081-13.69-5.42-2.338-.5868-4.731-.922-7.14-1-1.093.053-2.123.5244-2.878 1.3166-.755.7921-1.176 1.8443-1.176 2.9384 0 1.094.421 2.146 1.176 2.938.755.793 1.785 1.264 2.878 1.317v.05zM137.61 43.35h-32.13c-5.037 0-9.12 4.0832-9.12 9.12v14.17c0 5.0368 4.083 9.12 9.12 9.12h32.13c5.037 0 9.12-4.0832 9.12-9.12V52.47c0-5.0368-4.083-9.12-9.12-9.12z" fill="#6A94FF"/>
    <path d="M116.63 51.33h18.46c.771.0026 1.51.3101 2.055.8552.545.5452.852 1.2838.855 2.0548v7.11c0 1.9069-.758 3.7357-2.106 5.0841-1.348 1.3484-3.177 2.1059-5.084 2.1059h-9.32c-2.063 0-4.042-.8197-5.501-2.2787-1.459-1.459-2.279-3.4379-2.279-5.5013v-6.52c.003-.7727.311-1.5128.859-2.0583.547-.5454 1.288-.8517 2.061-.8517z" fill="#A9C7FF"/>
    <path d="M142.65 60.17c1.508 0 2.73-1.2223 2.73-2.73s-1.222-2.73-2.73-2.73-2.73 1.2223-2.73 2.73 1.222 2.73 2.73 2.73zM107.24 60.4c1.508 0 2.73-1.2223 2.73-2.73s-1.222-2.73-2.73-2.73-2.73 1.2223-2.73 2.73 1.222 2.73 2.73 2.73z" fill="#202225"/>
    <path d="M132.99 61.72h-2.52c-.701 0-1.27.5664-1.27 1.265 0 .6986.569 1.265 1.27 1.265h2.52c.701 0 1.27-.5664 1.27-1.265 0-.6986-.569-1.265-1.27-1.265zM125.56 64.14h-4c-.335-.0026-.656-.1376-.892-.3755s-.368-.5594-.368-.8945c.003-.3334.136-.6523.372-.8881.236-.2357.555-.3693.888-.3719h3.55c.166 0 .331.0329.485.0969.153.0639.292.1576.41.2757.117.118.209.2581.272.4122.063.154.094.3189.093.4852-.01.68-.11 1.26-.81 1.26z" fill="#6A94FF"/>
    <path d="M128.58 86.0274c2.024-.099 3.566-2.205 3.444-4.7039-.122-2.4988-1.862-4.4443-3.887-4.3453-2.024.099-3.566 2.205-3.444 4.7039.122 2.4989 1.862 4.4443 3.887 4.3453z" fill="#F5CE37"/>
    <path d="M130.038 84.7276c.121-2.4989-1.651-4.6148-3.957-4.726-2.306-.1112-4.273 1.8245-4.393 4.3235-.121 2.4989 1.651 4.6148 3.957 4.726 2.306.1111 4.273-1.8245 4.393-4.3235zM136.54 79.2589c.288-2.1925-1.128-4.1864-3.162-4.4535-2.034-.2671-3.916 1.2938-4.204 3.4863-.288 2.1925 1.128 4.1864 3.162 4.4535 2.034.2671 3.916-1.2938 4.204-3.4863z" fill="#F5CE37"/>
    <path d="M137.46 82.04c1.784 0 3.23-1.7327 3.23-3.87s-1.446-3.87-3.23-3.87-3.23 1.7327-3.23 3.87 1.446 3.87 3.23 3.87z" fill="#F5CE37"/>
    <path d="M140.46 83.04c1.784 0 3.23-1.7327 3.23-3.87s-1.446-3.87-3.23-3.87-3.23 1.7327-3.23 3.87 1.446 3.87 3.23 3.87z" fill="#F5CE37"/>
    <path d="M142.67 88.1c1.673 0 3.03-2.0282 3.03-4.53 0-2.5019-1.357-4.53-3.03-4.53-1.673 0-3.03 2.0281-3.03 4.53 0 2.5018 1.357 4.53 3.03 4.53zM135.31 85.64c1.872 0 3.39-1.9655 3.39-4.39 0-2.4245-1.518-4.39-3.39-4.39s-3.39 1.9655-3.39 4.39c0 2.4245 1.518 4.39 3.39 4.39z" fill="#F5CE37"/>
    <path d="M130.27 86.86c1.889 0 3.42-2.064 3.42-4.61 0-2.546-1.531-4.61-3.42-4.61s-3.42 2.064-3.42 4.61c0 2.546 1.531 4.61 3.42 4.61zM140.18 88.05c1.944 0 3.52-2.064 3.52-4.61 0-2.546-1.576-4.61-3.52-4.61s-3.52 2.064-3.52 4.61c0 2.546 1.576 4.61 3.52 4.61z" fill="#F5CE37"/>
    <path d="M123.62 82.09h-2.92l-1 16.38c-.001.2779.052.5534.158.8105.105.2572.26.491.456.688.197.1965.43.3535.686.4595.257.107.532.162.81.162h5.78v-18.5h-3.97z" fill="#EA7F04"/>
    <path d="M146.27 82.09h-18.72v18.5h17.74c.53 0 1.039-.211 1.414-.586.375-.3749.586-.8836.586-1.414l-1.02-16.5z" fill="#EF9504"/>
    <path d="M137.77 96.16c2.761 0 5-2.2386 5-5s-2.239-5-5-5-5 2.2386-5 5 2.239 5 5 5z" fill="#F5CE37"/>
    <path d="M143.074 90.3744l-9.565-2.4721c-.567-.1464-1.145.1943-1.292.7611l-.513 1.9848c-.146.5668.194 1.145.761 1.2915l9.566 2.4721c.567.1465 1.145-.1943 1.291-.7611l.513-1.9848c.147-.5668-.194-1.145-.761-1.2915z" fill="#E57003"/>
    <path d="M106.35 85.31c0 3.69 2.24 6.7 5.24 8.66 3.072 1.8464 6.607 2.7762 10.19 2.68.576.0279 1.152-.0614 1.692-.2626.541-.2013 1.035-.5102 1.453-.908.417-.3979.75-.8764.977-1.4066.227-.5302.344-1.101.344-1.6778s-.117-1.1476-.344-1.6778c-.227-.5302-.56-1.0087-.977-1.4066-.418-.3978-.912-.7067-1.453-.908-.54-.2012-1.116-.2905-1.692-.2626-.846.0015-1.691-.0519-2.53-.16l1.13.15c-1.26-.1817-2.492-.5175-3.67-1l1 .43c-.86-.3557-1.673-.8158-2.42-1.37l.86.66c-.522-.3967-.992-.8569-1.4-1.37l.66.86c-.292-.39-.543-.8088-.75-1.25l.43 1c-.182-.4352-.307-.8924-.37-1.36l.15 1.13v-.59c0-1.1272-.448-2.2082-1.245-3.0052-.797-.797-1.878-1.2448-3.005-1.2448s-2.208.4478-3.005 1.2448c-.797.797-1.245 1.878-1.245 3.0052l-.02.04z" fill="url(#paint1_linear)"/>
    <path d="M54.5 87.92h37.88c1.4375 0 2.8161.571 3.8325 1.5875C97.229 90.5239 97.8 91.9025 97.8 93.34v23.85H49.07V93.34c0-.7126.1405-1.4182.4135-2.0765.273-.6582.6732-1.2561 1.1775-1.7596.5044-.5034 1.103-.9024 1.7618-1.1742.6587-.2718 1.3646-.411 2.0772-.4097z" fill="#EBF0F7"/>
    <path d="M92.38 87.92c1.4375 0 2.8161.571 3.8325 1.5875C97.229 90.5239 97.8 91.9025 97.8 93.34v23.85H87V93.34c0-1.4306.5655-2.8031 1.5733-3.8184 1.0078-1.0154 2.3762-1.591 3.8067-1.6016z" fill="white"/>
    <path d="M150.61 60.25c-.09.3408-.204.675-.34 1l-.09.23c-.11.29 0-.07 0 .1s-.18.41-.28.61c-.248.4908-.522.9682-.82 1.43-1.675 2.5307-4.103 4.4719-6.94 5.55-2.529.9268-5.206 1.3843-7.9 1.35-.28.0264-.54.1564-.73.3644-.189.2081-.294.4793-.294.7606 0 .2813.105.5525.294.7606.19.208.45.338.73.3644 4.67 0 9.39-1.1 13.13-4 2.183-1.699 3.889-3.9351 4.95-6.49.207-.472.374-.9603.5-1.46.32-1.41-1.85-2-2.17-.6l-.04.03z" fill="#A9C7FF"/>
    <path d="M96.7 68.19c2.2091 0 4-4.2533 4-9.5s-1.7909-9.5-4-9.5c-2.2091 0-4 4.2533-4 9.5s1.7909 9.5 4 9.5z" fill="#AEC7FF"/>
    <path d="M158 38.49c.37.11.73.23 1.08.37.35.14.83.44 0 0 .19.1.41.18.61.28.768.3697 1.507.7976 2.21 1.28l.54.39c.28.19-.64-.53 0 0 .31.25.61.52.91.8.64.6 1.18 1.28 1.77 1.93l-.29-.37.25.35c.13.18.25.36.37.55.12.19.43.68.63 1 .2.32.38.71.55 1.07l.18.4-.19-.44c.06.2122.144.4168.25.61.304.8375.545 1.6966.72 2.57 0 .22.08.44.12.66.13.7-.07-.81 0 0 0 .38.07.76.09 1.14.048.9128.445 1.7724 1.108 2.4014.664.6291 1.543.9797 2.457.9797.914 0 1.793-.3506 2.457-.9797.663-.629 1.06-1.4886 1.108-2.4014-.203-4.3845-1.752-8.6-4.436-12.073-2.684-3.4729-6.372-6.0348-10.564-7.337-.456-.1389-.935-.1851-1.409-.1358-.475.0492-.934.193-1.352.4227-.417.2297-.785.5408-1.081.9148-.295.374-.513.8035-.64 1.263-.127.4595-.16.9398-.098 1.4125.061.4727.217.9283.458 1.3398.24.4115.561.7707.943 1.0563.381.2856.816.4919 1.279.6067l-.03-.06zM165.15 28.22c.54.16 1.07.34 1.59.54.35.13 1.22.65 0 0 .28.16.61.28.9.42 1.118.5295 2.198 1.1377 3.23 1.82l.8.57c.41.28-1-.78 0 0 .46.38.9.77 1.33 1.18.95.89 1.74 1.88 2.61 2.85l-.43-.55.38.52c.18.26.37.52.54.79.32.5.63 1 .92 1.52.29.52.56 1 .81 1.58l.27.59-.27-.66c.081.3157.199.6211.35.91.451 1.2281.808 2.4883 1.07 3.77l.18 1c.19 1-.11-1.2 0-.08.05.56.1 1.12.13 1.67.12 2.74 2.32 5.38 5.24 5.25 2.74-.12 5.38-2.31 5.25-5.25-.298-6.4463-2.577-12.6441-6.524-17.7492-3.947-5.1051-9.372-8.8696-15.536-10.7808-1.34-.3574-2.767-.1741-3.974.5105-1.206.6846-2.095 1.8156-2.476 3.1495-.342 1.3397-.151 2.7596.531 3.9621.682 1.2024 1.804 2.094 3.129 2.4879l-.05-.02z" fill="#00BF9B"/>
    <path d="M173.64 13.89c.79.24 1.56.52 2.32.81 1.13.43-1.69-.77 0 0 .43.2.86.41 1.28.63 1.615.8374 3.166 1.7934 4.64 2.86 1.49 1.09-.87-.73.06 0l1.15.94c.75.65 1.48 1.32 2.19 2 1.34 1.33 2.5 2.79 3.74 4.21-1.44-1.65-.25-.31.05.11s.58.82.86 1.24c.48.72.94 1.47 1.39 2.22.45.75 1 1.74 1.41 2.63.22.45.42.9.63 1.35.52 1.1-.67-1.69 0 0 .681 1.7256 1.23 3.5008 1.64 5.31.11.47.21.93.3 1.4.09.47.23 2.31 0-.09.07.82.18 1.63.21 2.46.17 3.61 3.07 7.09 6.93 6.92 3.61-.16 7.09-3 6.92-6.92-.66-14.69-9.55-28.35-21.56-36.46-3.224-2.17525-6.752-3.86025-10.47-4.999997-1.768-.4660182-3.649-.221561-5.239.681077-1.59.90265-2.764 2.3918-3.271 4.14892-.448 1.7689-.196 3.64247.704 5.2299.9 1.5874 2.378 2.7661 4.126 3.2901l-.01.03z" fill="#60E0C4"/>
    <g opacity=".5">
      <path opacity=".5" d="M207.56 80.86l-.06-.12c-.13-.27 0 .11 0-.06l-.18-.5c-.133-.3517-.24-.7127-.32-1.08-.06-.3 0 .16 0 0 .005-.0866.005-.1734 0-.26v-.51-.84c0 .22 0 .14 0 0 .062-.359.149-.7132.26-1.06 0-.16.12-.32.18-.49 0 .13-.08.17 0 0s.09-.2.14-.29c.172-.3451.366-.679.58-1 .08-.12.08-.12 0 0l.17-.21c.112-.1372.232-.2674.36-.39.163-.14.295-.3121.388-.5056.093-.1934.145-.404.153-.6185.008-.2145-.028-.4284-.106-.6283-.079-.1998-.198-.3813-.349-.5331-.152-.1519-.334-.2707-.534-.3491-.199-.0785-.413-.1148-.628-.1068-.214.0081-.425.0603-.618.1534-.194.0932-.366.2253-.506.388-1.328 1.3792-2.197 3.1349-2.489 5.0269-.291 1.892.009 3.828.859 5.5431.101.1804.236.3388.399.4659.163.1272.35.2205.549.2746.199.054.407.0676.612.0401.205-.0276.402-.0958.58-.2006.348-.2139.6-.5534.704-.948.104-.3947.053-.8143-.144-1.172v-.02zM202.16 81.62l-.09-.18c-.19-.39.05.17 0-.08s-.18-.49-.26-.74c-.165-.5166-.292-1.0447-.38-1.58-.08-.45 0 .23 0-.06v-.38-.75c-.015-.2831-.015-.5669 0-.85v-.38-.05c.091-.5247.218-1.0426.38-1.55.08-.25.17-.48.26-.72-.07.19-.11.24 0 0s.13-.28.21-.43c.247-.4823.528-.9467.84-1.39.12-.18.12-.17 0 0 .08-.11.17-.21.25-.31.08-.1.35-.39.53-.58.428-.4283.669-1.0093.669-1.615 0-.6057-.241-1.1867-.669-1.615-.428-.4283-1.009-.6689-1.615-.6689-.606 0-1.187.2406-1.615.6689-1.951 2.0278-3.23 4.6081-3.661 7.3891-.431 2.781.005 5.6273 1.251 8.1509.307.5234.809.9037 1.395 1.0574.587.1538 1.211.0684 1.735-.2374.511-.3155.881-.8154 1.034-1.3961.152-.5808.076-1.198-.214-1.7239l-.05.02z" fill="#9099A4"/>
      <path opacity=".5" d="M195.06 83.15c.42.86-.35-.71-.16-.34-.2-.39.14.44 0 0s-.26-.72-.37-1.09c-.11-.37-.23-.83-.32-1.25l-.09-.52c-.12-.58 0 .26 0-.11-.08-.7942-.12-1.5918-.12-2.39 0-.41 0-.81.06-1.21 0-.23 0-.45.07-.67 0-.5-.13.7 0-.14.132-.7977.316-1.586.55-2.36.12-.39.24-.77.38-1.15 0-.11.28-.68 0-.14.07-.16.14-.32.22-.48.352-.7498.759-1.4718 1.22-2.16.1-.14.2-.27.3-.42.1-.15-.3.33.07-.09.23-.25.45-.51.68-.75.565-.5649.882-1.3311.882-2.13 0-.7989-.317-1.5651-.882-2.13s-1.331-.8823-2.13-.8823c-.799 0-1.565.3174-2.13.8823-5.59 5.72-7 15.42-3.51 22.56.196.3579.464.6719.786.9228.322.2509.692.4334 1.087.5364.395.103.807.1242 1.211.0625.403-.0618.79-.2053 1.136-.4217.673-.4206 1.16-1.0826 1.36-1.8504.201-.7678.101-1.5834-.28-2.2796h-.02z" fill="#C7CCD1"/>
    </g>
    <g opacity=".5">
      <path opacity=".5" d="M154.65 97.67c.909-.5493 1.613-1.382 2.004-2.3703.39-.9882.445-2.0772.156-3.0997-.022-.1213-.07-.2366-.139-.3386-.069-.1021-.159-.1886-.263-.2541-.105-.0655-.222-.1087-.344-.1266-.122-.0179-.246-.0103-.365.0224s-.23.0897-.326.1675c-.095.0778-.174.1746-.23.2843-.056.1097-.089.2299-.097.353-.007.1231.011.2464.054.3621 0 .09.05.18.07.26.005.0465.005.0935 0 .14V93.22c-.005.0566-.005.1134 0 .17v.29c.02.1057.02.2143 0 .32 0-.07 0-.17 0 0v.16c-.043.1939-.1.3844-.17.57 0 0-.07.15 0 0s0 0 0 .07l-.15.27c-.045.0852-.099.1656-.16.24-.06.1 0 .09 0 0-.031.0452-.064.0886-.1.13-.137.1533-.284.2969-.44.43 0 0-.17.13-.07.06s-.06 0-.07 0c-.073.0557-.15.1059-.23.15-.185.1279-.314.3209-.362.5403-.048.2193-.012.4488.102.6424.114.1936.297.337.512.4014.215.0644.446.0451.648-.0541l-.03.06zM157.65 100.34c1.331-.8026 2.362-2.0199 2.935-3.465.573-1.4452.655-3.0384.235-4.535-.093-.3316-.314-.613-.613-.7834-.3-.1703-.654-.2158-.987-.1266-.329.0979-.607.319-.777.6172-.169.2981-.217.6502-.133.9828 0 .13.07.25.1.38.005.0666.005.1334 0 .2 0 0 .06.32 0 .11-.06-.21 0 .07 0 .12.005.0799.005.1601 0 .24.01.1398.01.2802 0 .42v.47c.06-.09 0-.24 0 0 .005.0766.005.1534 0 .23-.059.29-.142.5744-.25.85 0 0-.11.21 0 .05.11-.16 0 .06 0 .1 0 .04-.14.28-.22.41-.08.13-.15.24-.23.35-.08.11-.07.13 0 0-.039.0686-.09.1296-.15.18-.193.2329-.407.4471-.64.64 0 0-.25.19-.1.08l-.1.07-.34.22c-.148.0867-.277.2016-.38.3382-.104.1366-.179.2922-.222.458-.043.1658-.053.3384-.03.508.024.1697.08.3331.167.4808.087.148.202.277.338.38.137.104.292.179.458.222.166.043.339.053.508.03.17-.024.333-.08.481-.167l-.05-.06z" fill="#9099A4"/>
      <path opacity=".5" d="M161.3 103.87c1.897-1.214 3.363-2.995 4.191-5.0901.827-2.0948.974-4.397.419-6.5799-.122-.4403-.414-.814-.811-1.0391-.398-.225-.869-.2829-1.309-.1609-.44.122-.814.4139-1.039.8115-.225.3975-.283.8682-.161 1.3085.055.1668.099.3372.13.51l.06.32c.05.21 0-.33 0 0 .025.4463.025.8937 0 1.34v.33c0 .1-.08.41 0 0 0 .23-.07.45-.12.67-.11.45-.25.88-.4 1.31-.07.18 0 .1 0 0l-.18.37c-.1.2-.2.41-.32.6s-.23.39-.36.58l-.15.22c-.25.36.14-.16 0 0-.282.3552-.589.689-.92 1l-.25.21c-.24.21.16-.09 0 0s-.32.22-.49.32c-.398.229-.688.607-.807 1.051-.119.444-.057.916.172 1.314.229.398.607.688 1.051.807.444.119.916.057 1.314-.172l-.02-.03z" fill="#C7CCD1"/>
    </g>
    <path d="M62.75 108.94c.4732-2.621.1239-5.325-1-7.74-1.0995-2.2675-2.8694-4.1421-5.07-5.37-.2384-.1392-.5018-.2301-.7753-.2675-.2734-.0374-.5516-.0205-.8186.0496-.2669.0701-.5175.1921-.7373.359s-.4046.3755-.5438.6139c-.1392.2383-.2301.5018-.2675.7753-.0374.2734-.0205.5516.0496.8186.0701.2669.1921.5175.359.7373.167.2198.3756.4046.6139.5438.4429.1871.8492.4512 1.2.78-.08-.1-.25-.2-.05 0l.3.26c.19.17.38.36.56.54.18.18.31.35.47.53.34.39-.26-.36 0 .06l.18.25c.2908.428.5514.876.78 1.34.0493.09.0927.184.13.28.22.45-.1-.28 0 0s.18.49.25.73c.0806.246.1474.496.2.75 0 .14 0 .6.14.69v-.17c.0049.05.0049.1 0 .15v.39c.0149.263.0149.527 0 .79v.72c.0094.133.0094.267 0 .4 0-.06.07-.48 0-.08-.1244.276-.1876.576-.1853.878.0022.303.07.602.1985.876s.3148.517.5461.713c.2312.195.502.338.7938.419.2917.081.5975.098.8964.05.2989-.048.5839-.161.8353-.33.2514-.168.4634-.389.6213-.648.158-.258.2582-.547.2939-.848l.03-.04zM72 108.35c.6611-3.855.1126-7.82-1.57-11.35-1.6032-3.3464-4.1972-6.1185-7.43-7.94-.3506-.2049-.7382-.3387-1.1405-.3938-.4023-.055-.8116-.0303-1.2044.0727-.3928.1031-.7614.2825-1.0849.5281-.3234.2455-.5953.5524-.8002.903-.2049.3506-.3387.7382-.3937 1.1405-.0551.4023-.0304.8116.0726 1.2044.1031.3928.2825.7614.5281 1.0849.2455.3234.5524.5953.903.8002.6541.2787 1.2534.6715 1.77 1.16-.12-.16-.37-.31-.08 0l.44.37c.29.26.56.53.83.81.27.28.46.51.68.77.51.58-.36-.54.08.09l.27.37c.431.6381.8153 1.3065 1.15 2 .06.14.13.28.19.41.32.67-.14-.41 0 0s.26.71.37 1.07c.11.36.21.73.3 1.1 0 .21.05.88.19 1-.05-.4-.06-.49 0-.25.0049.077.0049.153 0 .23v.57c.0199.386.0199.774 0 1.16v1c.0004.198-.0197.396-.06.59 0-.09.11-.7 0-.12-.1968.791-.0824 1.627.3196 2.336.4019.709 1.0607 1.237 1.8404 1.474 1.5.34 3.52-.46 3.8-2.16l.03-.03z" fill="#9099A4"/>
    <path d="M83.7 108.1c1.78-10.58-3.61-22.7-13.1-28-.4603-.3341-.9853-.5683-1.5414-.6876-.5561-.1192-1.131-.1209-1.6878-.0049-.5568.1161-1.0832.3472-1.5454.6787-.4622.3314-.85.7559-1.1384 1.246-.2885.4902-.4714 1.0352-.5368 1.6002-.0654.565-.012 1.1374.1568 1.6805.1689.5431.4494 1.0449.8236 1.4733.3742.4283.8339.7736 1.3494 1.0138.36.21.72.42 1.07.65l.65.45c.36.26.47.39.06 0 .8287.6904 1.6136 1.4318 2.35 2.22.37.4.72.83 1.06 1.25-.6-.74.09.13.16.24l.38.55c.6473.9613 1.2319 1.9634 1.75 3 .12.26.24.51.35.76.33.71-.11-.35 0 .11.11.46.39 1 .56 1.57.3391 1.0548.6097 2.13.81 3.22 0 .26.09.53.13.8-.08-.54-.06-.43 0 0s.08 1.07.09 1.61c.01.54 0 1.06-.05 1.59.0108.262-.0127.524-.07.78 0-.1.15-.93 0-.16-.36 2.1.55 4.5 2.85 5 2 .45 4.64-.6 5-2.86l.07.22z" fill="#C7CCD1"/>
    <path d="M144.1 12.38l-3.1-1.5c-.158-.0759-.336-.1016-.509-.0736-.174.028-.334.1083-.46.2303-.127.1219-.213.2795-.247.4518-.034.1722-.014.3507.056.5115l1.51 3.12c.054.1158.083.2421.083.37 0 .1279-.029.2542-.083.37L139.84 19c-.077.1616-.102.3433-.071.5196.031.1764.117.3387.244.4642.128.1255.292.208.469.236.177.028.358.0001.518-.0798l3.11-1.5c.117-.0546.245-.0829.375-.0829s.258.0283.375.0829l3.12 1.5c.159.076.338.1006.512.0703.174-.0302.334-.1137.458-.239s.206-.2861.235-.4601c.029-.174.002-.3527-.075-.5112l-1.5-3.12c-.059-.1145-.089-.2413-.089-.37s.03-.2555.089-.37l1.5-3.12c.073-.1565.097-.3317.069-.5021-.029-.1705-.109-.3282-.229-.4521-.121-.1238-.277-.208-.446-.2412-.17-.0332-.346-.0139-.504.0554l-3.12 1.5c-.121.0592-.255.09-.39.09s-.269-.0308-.39-.09z" fill="#FF78B9"/>
    <path d="M176.65 58.69l-1.41-4c-.068-.2119-.201-.3968-.381-.528-.18-.1312-.396-.2018-.619-.2018-.223 0-.439.0706-.619.2018s-.313.3161-.381.528l-1.41 4c-.052.1492-.136.2849-.247.3974-.11.1124-.245.1987-.393.2526l-4 1.41c-.265 0-.52.1054-.707.2929-.188.1875-.293.4419-.293.7071 0 .2652.105.5196.293.7071.187.1875.442.2929.707.2929l4 1.41c.148.0539.283.1402.393.2526.111.1125.195.2482.247.3974l1.41 4c.068.2119.201.3968.381.528.18.1312.396.2018.619.2018.223 0 .439-.0706.619-.2018s.313-.3161.381-.528l1.41-4c.052-.1492.136-.2849.246-.3974.111-.1124.246-.1987.394-.2526l4-1.41c.265 0 .52-.1054.707-.2929.188-.1875.293-.4419.293-.7071 0-.2652-.105-.5196-.293-.7071-.187-.1875-.442-.2929-.707-.2929l-4-1.41c-.148-.0539-.283-.1402-.394-.2526-.11-.1125-.194-.2482-.246-.3974z" fill="#F47FFF"/>
    <path d="M229.21 39.91l-.91-2.61c-.045-.1353-.132-.253-.248-.3364-.115-.0834-.254-.1282-.397-.1282-.143 0-.282.0448-.397.1282-.116.0834-.203.2011-.248.3364l-.91 2.61c-.033.0976-.088.1863-.161.2591-.073.0728-.161.1279-.259.1609l-2.61.91c-.135.0452-.253.1318-.336.2475-.084.1158-.129.2548-.129.3975s.045.2817.129.3975c.083.1157.201.2023.336.2475l2.61.91c.097.0349.184.0907.257.1633.072.0725.128.1602.163.2567l.91 2.61c.045.1353.132.253.248.3364.115.0834.254.1283.397.1283.143 0 .282-.0449.397-.1283.116-.0834.203-.2011.248-.3364l.91-2.61c.036-.0958.092-.1829.165-.2553.072-.0724.159-.1286.255-.1647l2.61-.91c.135-.0452.253-.1318.336-.2475.084-.1158.129-.2548.129-.3975s-.045-.2817-.129-.3975c-.083-.1157-.201-.2023-.336-.2475l-2.61-.91c-.097-.0349-.184-.0907-.257-.1632-.072-.0726-.128-.1603-.163-.2568z" fill="#FF78B9"/>
    <path d="M220.96 26.84v-.01c0-1.1653-.945-2.11-2.11-2.11h-2.12c-1.165 0-2.11.9447-2.11 2.11v.01c0 1.1653.945 2.11 2.11 2.11h2.12c1.165 0 2.11-.9447 2.11-2.11zM204.04 26.84v-.01c0-1.1653-.945-2.11-2.11-2.11h-2.12c-1.165 0-2.11.9447-2.11 2.11v.01c0 1.1653.945 2.11 2.11 2.11h2.12c1.165 0 2.11-.9447 2.11-2.11zM209.32 38.46h.01c1.165 0 2.11-.9447 2.11-2.11v-2.12c0-1.1653-.945-2.11-2.11-2.11h-.01c-1.165 0-2.11.9447-2.11 2.11v2.12c0 1.1653.945 2.11 2.11 2.11zM209.32 21.55h.01c1.165 0 2.11-.9447 2.11-2.11v-2.12c0-1.1653-.945-2.11-2.11-2.11h-.01c-1.165 0-2.11.9447-2.11 2.11v2.12c0 1.1653.945 2.11 2.11 2.11z" fill="#F29CF5"/>
    <linearGradient id="paint0_linear" x1="130.66" y1="102.56" x2="150.76" y2="102.56" gradientUnits="userSpaceOnUse">
      <stop offset=".04" stop-color="#4B7EFD"/>
      <stop offset=".42" stop-color="#5988FE"/>
      <stop offset="1" stop-color="#6A94FF"/>
    </linearGradient>
    <linearGradient id="paint1_linear" x1="2289.97" y1="1470.35" x2="2529.53" y2="1470.35" gradientUnits="userSpaceOnUse">
      <stop offset=".04" stop-color="#4B7EFD"/>
      <stop offset=".42" stop-color="#5988FE"/>
      <stop offset="1" stop-color="#6A94FF"/>
    </linearGradient>
  </g>
</svg>
